<svg width="128" height="128" viewBox="0 0 128 128" fill="none" xmlns="http://www.w3.org/2000/svg">
  <defs>
    <linearGradient id="clarityMain" x1="18" y1="94" x2="112" y2="44" gradientUnits="userSpaceOnUse">
      <stop offset="0" stop-color="#6F3B25"/>
      <stop offset="0.52" stop-color="#A96E46"/>
      <stop offset="1" stop-color="#C4895F"/>
    </linearGradient>
    <linearGradient id="clarityInner" x1="30" y1="88" x2="101" y2="54" gradientUnits="userSpaceOnUse">
      <stop offset="0" stop-color="#5A2D1B"/>
      <stop offset="1" stop-color="#8E5636"/>
    </linearGradient>
  </defs>

  <path
    d="M24.5 78.5C36.7 58.6 63.4 44.1 104.6 46.3C84.2 50.1 63.2 58.7 50.2 67.8C45 71.5 43.9 75.6 46.6 78.4C51.6 83.5 66.7 85.3 90.3 80.2C75.6 90.5 59.9 95.3 44.3 95.3C25.3 95.3 16.7 89.4 24.5 78.5Z"
    fill="url(#clarityMain)"
  />
  <path
    d="M38.6 76.8C47.9 62.8 67 53.2 94.6 53.1C77 57.1 60.9 64.7 52.4 72.4C49.9 74.7 49.9 77.2 52.1 79C56.3 82.4 67.4 82.9 84 78.3C73.2 85 61.6 88.1 51.1 88.1C38.1 88.1 31.8 83.8 38.6 76.8Z"
    fill="url(#clarityInner)"
  />
  <path
    d="M90.7 56.1L92.7 61.7L98.4 63.7L92.7 65.7L90.7 71.4L88.7 65.7L83 63.7L88.7 61.7L90.7 56.1Z"
    fill="#A56C47"
  />
</svg>
